<?xml version="1.0" encoding="utf-8" ?><svg xmlns="http://www.w3.org/2000/svg" xmlns:xlink="http://www.w3.org/1999/xlink" width="960" height="960" viewBox="0 0 960 960"><path fill="#000000" transform="scale(10 10)" d="M47.1564 2.85226C47.1686 2.84988 47.1808 2.84699 47.1931 2.84514C55.8789 1.53761 68.9038 5.88653 75.9848 10.9657C78.6755 12.8957 81.1912 15.3395 81.7406 18.7455C82.1504 21.2857 81.4984 23.8099 79.9965 25.8851C78.4424 28.0325 75.9647 29.4742 73.3567 29.8826C71.3312 30.1997 69.2407 29.8731 67.5659 28.6382C64.4474 26.3387 64.1687 22.4657 63.6477 18.9362C61.2381 20.7413 58.178 22.3911 55.3106 23.2671C51.6017 24.4003 47.7681 24.0899 43.9557 24.3805C41.3196 24.5814 38.7243 25.1245 36.0692 24.9035C33.2787 24.6714 29.8683 23.8879 27.3748 22.5621C27.4973 25.5329 27.8454 28.7168 27.2567 31.6453C26.6962 34.4343 25.0898 36.9115 23.9345 39.4828C22.5806 42.4962 21.8838 45.8133 21.4934 49.0833C20.8109 54.8 21.7321 60.6368 25.3796 65.2563C30.0333 71.1499 37.8818 73.845 45.1162 74.6907C54.0882 75.7396 65.2222 74.3167 72.4314 68.5984C74.8821 66.6546 78.2164 63.1122 78.5646 59.8323C78.6777 58.7669 78.3419 57.7759 77.6647 56.9543C74.8192 53.5021 68.3071 54.3073 64.2787 54.0692C61.5862 53.91 58.884 53.6237 56.2013 53.3459C53.5898 53.0754 50.0323 52.679 48.2669 50.4645C47.5033 49.5067 47.2821 48.2542 47.4294 47.0553C47.664 45.1459 48.8053 43.6399 50.2697 42.489C52.6419 41.0746 55.4944 40.4817 58.2195 40.2563C67.0936 39.5221 80.6474 40.2711 87.6132 46.1952C90.9033 49.0288 92.9524 53.0384 93.3215 57.3648C93.8931 64.5854 89.0018 71.8831 84.4975 77.1771C76.9932 85.997 66.526 91.052 55.0295 91.9654C42.6933 92.9456 29.5445 89.6818 20.0098 81.5327C11.0588 73.8824 5.06944 63.4618 4.13934 51.6307C3.06174 39.4469 6.98141 27.3483 14.9989 18.1111C23.0213 8.72114 35.0293 3.80103 47.1564 2.85226Z"/></svg>
